<svg xmlns="http://www.w3.org/2000/svg" xmlns:xlink="http://www.w3.org/1999/xlink" zoomAndPan="magnify" preserveAspectRatio="xMidYMid meet" version="1.0" viewBox="0 34.05 375.03 306.63"><defs><clipPath id="23eb70b0ec"><path d="M 54 190 L 321 190 L 321 340.734375 L 54 340.734375 Z M 54 190 " clip-rule="nonzero"/></clipPath></defs><g clip-path="url(#23eb70b0ec)"><path fill="#0c0c0c" d="M 284.078125 211.4375 L 284.078125 243.085938 L 187.492188 298.800781 L 90.910156 243.085938 L 90.910156 211.421875 L 54.609375 190.480469 L 54.609375 264.027344 L 187.492188 340.675781 L 320.378906 264.027344 L 320.378906 190.5 Z M 284.078125 211.4375 " fill-opacity="1" fill-rule="nonzero"/></g><path fill="#0c0c0c" d="M 375.03125 142.246094 L 187.503906 34.074219 L 0 142.246094 L 187.503906 250.394531 L 223.804688 229.457031 L 187.503906 208.519531 L 72.578125 142.25 L 187.503906 75.953125 L 302.429688 142.25 L 263.128906 164.902344 L 226.804688 185.839844 L 263.105469 206.804688 L 299.429688 185.839844 Z M 375.03125 142.246094 " fill-opacity="1" fill-rule="nonzero"/><path fill="#0c0c0c" d="M 299.429688 185.839844 L 263.128906 164.902344 L 187.601562 121.332031 L 151.324219 142.246094 L 151.300781 142.296875 L 226.804688 185.839844 L 263.105469 206.804688 Z M 299.429688 185.839844 " fill-opacity="1" fill-rule="nonzero"/><path fill="#0c0c0c" d="M 10.582031 140.585938 L 22.683594 140.585938 L 22.683594 238.625 L 10.582031 238.625 Z M 10.582031 140.585938 " fill-opacity="1" fill-rule="nonzero"/><path fill="#0c0c0c" d="M 16.632812 266.976562 C 10.617188 266.976562 5.742188 262.105469 5.742188 256.09375 L 5.742188 223.089844 C 5.742188 217.082031 10.617188 212.210938 16.632812 212.210938 C 22.648438 212.210938 27.523438 217.082031 27.523438 223.089844 L 27.523438 256.09375 C 27.523438 262.105469 22.648438 266.976562 16.632812 266.976562 Z M 16.632812 266.976562 " fill-opacity="1" fill-rule="nonzero"/></svg>